<svg width="62" height="24" viewBox="0 0 62 24" fill="none" xmlns="http://www.w3.org/2000/svg">
<path d="M4.464 17.608C3.472 17.608 2.664 17.376 2.04 16.912C1.416 16.464 0.96 15.896 0.672 15.208C0.384 14.504 0.24 13.8 0.24 13.096C0.24 12.36 0.416 11.624 0.768 10.888C1.136 10.136 1.616 9.512 2.208 9.016C1.568 8.184 1.248 7.224 1.248 6.136C1.248 5.432 1.4 4.736 1.704 4.048C2.008 3.36 2.464 2.752 3.072 2.224C3.696 1.68 4.352 1.296 5.04 1.072C5.744 0.847999 6.464 0.735999 7.2 0.735999C8.192 0.735999 9.192 0.887999 10.2 1.192C11.208 1.496 12.192 1.864 13.152 2.296C14.112 2.712 15.016 3.096 15.864 3.448C16.072 3.24 16.28 3.048 16.488 2.872C16.696 2.696 16.912 2.528 17.136 2.368C17.632 2.032 18.28 1.864 19.08 1.864C19.576 1.864 20.032 1.96 20.448 2.152C20.864 2.328 21.104 2.632 21.168 3.064V3.136C21.168 3.312 21.104 3.4 20.976 3.4C20.848 3.4 20.784 3.32 20.784 3.16C20.768 2.92 20.616 2.712 20.328 2.536C20.04 2.344 19.688 2.248 19.272 2.248C19 2.248 18.712 2.296 18.408 2.392C18.104 2.472 17.792 2.624 17.472 2.848C17.136 3.088 16.816 3.376 16.512 3.712C17.264 4 18.016 4.248 18.768 4.456C19.536 4.648 20.296 4.744 21.048 4.744C21.16 4.744 21.272 4.744 21.384 4.744C21.496 4.744 21.608 4.736 21.72 4.72C22.136 4.688 22.592 4.576 23.088 4.384C23.6 4.192 24.04 3.968 24.408 3.712C24.792 3.456 25 3.216 25.032 2.992C25.064 2.816 25.128 2.728 25.224 2.728C25.368 2.728 25.424 2.848 25.392 3.088C25.344 3.376 25.168 3.648 24.864 3.904C24.576 4.16 24.224 4.392 23.808 4.6C23.408 4.792 23 4.952 22.584 5.08C22.168 5.208 21.816 5.288 21.528 5.32C21.384 5.336 21.24 5.352 21.096 5.368C20.952 5.368 20.8 5.368 20.64 5.368C19.808 5.368 19 5.28 18.216 5.104C17.432 4.928 16.656 4.72 15.888 4.48C15.408 5.152 14.992 5.904 14.64 6.736C14.304 7.568 13.984 8.432 13.68 9.328C13.392 10.208 13.056 11.072 12.672 11.92C11.888 13.744 10.808 15.144 9.432 16.12C8.056 17.112 6.4 17.608 4.464 17.608ZM4.584 17.152C5.56 17.152 6.424 16.856 7.176 16.264C7.944 15.688 8.648 14.936 9.288 14.008C9.928 13.064 10.544 12.056 11.136 10.984C11.728 9.896 12.336 8.752 12.96 7.552C13.6 6.336 14.336 5.232 15.168 4.24C14.448 3.984 13.664 3.704 12.816 3.4C11.968 3.096 11.096 2.84 10.2 2.632C9.32 2.408 8.456 2.296 7.608 2.296C7.064 2.296 6.536 2.352 6.024 2.464C5.528 2.576 5.056 2.768 4.608 3.04C3.824 3.504 3.248 4.064 2.88 4.72C2.512 5.376 2.328 6.032 2.328 6.688C2.328 7.024 2.368 7.352 2.448 7.672C2.544 7.992 2.672 8.288 2.832 8.56C3.152 8.368 3.496 8.216 3.864 8.104C4.232 7.992 4.616 7.936 5.016 7.936C5.88 7.936 6.576 8.12 7.104 8.488C7.648 8.84 8.048 9.272 8.304 9.784C8.672 9.56 8.968 9.28 9.192 8.944C9.432 8.592 9.576 8.184 9.624 7.72C9.656 7.528 9.728 7.432 9.84 7.432C9.968 7.432 10.016 7.536 9.984 7.744C9.92 8.336 9.752 8.832 9.48 9.232C9.208 9.632 8.864 9.944 8.448 10.168C8.512 10.328 8.552 10.496 8.568 10.672C8.6 10.832 8.616 11 8.616 11.176C8.616 11.768 8.496 12.288 8.256 12.736C8.032 13.184 7.736 13.552 7.368 13.84C7.016 14.112 6.64 14.32 6.24 14.464C5.856 14.608 5.512 14.68 5.208 14.68C4.744 14.68 4.312 14.544 3.912 14.272C3.528 13.984 3.336 13.648 3.336 13.264C3.336 12.928 3.416 12.76 3.576 12.76C3.64 12.76 3.688 12.792 3.72 12.856C3.752 12.92 3.752 13.008 3.72 13.12C3.688 13.216 3.728 13.368 3.84 13.576C3.968 13.768 4.152 13.944 4.392 14.104C4.632 14.264 4.912 14.344 5.232 14.344C5.536 14.344 5.88 14.232 6.264 14.008C6.664 13.768 7.016 13.432 7.32 13C7.64 12.568 7.824 12.056 7.872 11.464C7.888 11.4 7.896 11.344 7.896 11.296C7.896 11.232 7.896 11.168 7.896 11.104C7.896 10.88 7.872 10.664 7.824 10.456C7.552 10.552 7.264 10.624 6.96 10.672C6.656 10.704 6.344 10.72 6.024 10.72C5.336 10.72 4.712 10.616 4.152 10.408C3.592 10.2 3.112 9.92 2.712 9.568C2.344 10.032 2.064 10.592 1.872 11.248C1.68 11.888 1.584 12.528 1.584 13.168C1.584 13.808 1.688 14.432 1.896 15.04C2.104 15.648 2.424 16.152 2.856 16.552C3.304 16.952 3.88 17.152 4.584 17.152ZM6.024 10.36C6.648 10.36 7.208 10.264 7.704 10.072C7.528 9.608 7.224 9.216 6.792 8.896C6.36 8.56 5.768 8.392 5.016 8.392C4.664 8.392 4.328 8.456 4.008 8.584C3.704 8.696 3.432 8.864 3.192 9.088C3.512 9.472 3.912 9.784 4.392 10.024C4.872 10.248 5.416 10.36 6.024 10.36ZM14.4223 16.432C14.7423 15.616 15.0863 14.68 15.4543 13.624C15.8223 12.568 16.2463 11.456 16.7263 10.288C17.2063 9.12 17.7503 7.952 18.3583 6.784C18.9663 5.6 19.6463 4.528 20.3983 3.568C20.7023 3.184 21.0463 2.896 21.4303 2.704C21.8143 2.496 22.1743 2.392 22.5103 2.392C22.8303 2.392 23.0943 2.488 23.3023 2.68C23.5263 2.856 23.6383 3.128 23.6383 3.496C23.6383 3.688 23.6063 3.904 23.5423 4.144C23.4783 4.384 23.3743 4.648 23.2303 4.936C22.8623 5.688 22.2543 6.528 21.4063 7.456C20.5583 8.384 19.3983 9.488 17.9263 10.768C17.8463 10.928 17.7743 11.096 17.7103 11.272C17.6463 11.432 17.5743 11.608 17.4943 11.8L17.3023 12.28C17.5743 11.944 17.8863 11.576 18.2383 11.176C18.5903 10.776 18.9663 10.4 19.3663 10.048C19.7663 9.68 20.1583 9.392 20.5423 9.184C21.0063 8.928 21.4303 8.8 21.8143 8.8C22.1503 8.8 22.4143 8.904 22.6063 9.112C22.8143 9.304 22.9183 9.568 22.9183 9.904C22.9183 10.24 22.8143 10.608 22.6063 11.008C22.3023 11.616 21.9743 12.224 21.6223 12.832C21.2863 13.44 21.0063 14.072 20.7823 14.728C20.7343 14.888 20.7103 15.024 20.7103 15.136C20.7103 15.488 20.9023 15.664 21.2863 15.664C21.6063 15.664 21.9423 15.552 22.2943 15.328C22.8063 15.008 23.3583 14.536 23.9503 13.912C24.5583 13.272 25.1103 12.6 25.6063 11.896C25.6703 11.816 25.7343 11.776 25.7983 11.776C25.8943 11.776 25.9423 11.832 25.9423 11.944C25.9423 12.04 25.9103 12.128 25.8463 12.208C25.3983 12.848 24.8783 13.488 24.2863 14.128C23.6943 14.752 23.1183 15.264 22.5583 15.664C21.9823 16.064 21.3743 16.264 20.7343 16.264C20.3343 16.264 19.9903 16.16 19.7023 15.952C19.4303 15.744 19.2943 15.4 19.2943 14.92C19.2943 14.664 19.3423 14.384 19.4383 14.08C19.6143 13.456 19.8623 12.896 20.1823 12.4C20.5183 11.888 20.8223 11.336 21.0943 10.744C21.2863 10.328 21.3823 10.032 21.3823 9.856C21.3823 9.696 21.3103 9.616 21.1663 9.616C21.0063 9.616 20.7983 9.696 20.5423 9.856C20.2863 10 20.0463 10.16 19.8223 10.336C19.3583 10.72 18.8943 11.168 18.4303 11.68C17.9663 12.192 17.5583 12.704 17.2063 13.216C16.8543 13.728 16.6143 14.176 16.4863 14.56L15.9823 16.072C15.7423 16.072 15.4543 16.112 15.1183 16.192C14.7823 16.272 14.5503 16.352 14.4223 16.432ZM18.3103 9.76C19.2703 8.864 20.1023 7.992 20.8063 7.144C21.5263 6.296 22.0783 5.512 22.4623 4.792C22.7983 4.136 22.9663 3.664 22.9663 3.376C22.9663 3.2 22.9103 3.112 22.7983 3.112C22.5263 3.112 22.1103 3.512 21.5503 4.312C20.9103 5.192 20.3263 6.072 19.7983 6.952C19.2863 7.832 18.7903 8.768 18.3103 9.76ZM28.7608 8.224C28.5208 8.224 28.3368 8.144 28.2088 7.984C28.0808 7.824 28.0168 7.64 28.0168 7.432C28.0168 7.208 28.0968 7.024 28.2568 6.88C28.4328 6.736 28.6168 6.664 28.8088 6.664C29.0488 6.664 29.2408 6.744 29.3848 6.904C29.5288 7.048 29.6008 7.224 29.6008 7.432C29.6008 7.64 29.5128 7.824 29.3368 7.984C29.1608 8.144 28.9688 8.224 28.7608 8.224ZM27.6088 16.408C27.0648 16.408 26.6328 16.208 26.3128 15.808C25.9928 15.392 25.8328 14.872 25.8328 14.248C25.8328 13.8 25.9128 13.344 26.0728 12.88C26.1528 12.624 26.2488 12.328 26.3608 11.992C26.4728 11.64 26.5768 11.336 26.6728 11.08C26.4648 11.384 26.2488 11.688 26.0248 11.992C25.8168 12.296 25.5848 12.592 25.3288 12.88C25.1848 13.04 25.0488 13.12 24.9208 13.12C24.8568 13.12 24.8248 13.088 24.8248 13.024C24.8248 12.96 24.8648 12.88 24.9448 12.784C25.5048 12.064 25.9688 11.4 26.3368 10.792C26.7208 10.184 27.0088 9.728 27.2008 9.424C27.3288 9.2 27.5368 9.064 27.8248 9.016C28.1128 8.968 28.3608 8.952 28.5688 8.968C28.6328 8.968 28.7048 8.976 28.7848 8.992C28.8648 8.992 28.9848 8.992 29.1448 8.992C29.0488 9.184 28.8968 9.512 28.6888 9.976C28.4968 10.424 28.2968 10.912 28.0888 11.44C27.8808 11.952 27.6968 12.408 27.5368 12.808C27.3928 13.16 27.2728 13.512 27.1768 13.864C27.0968 14.216 27.0568 14.536 27.0568 14.824C27.0568 15.128 27.1128 15.376 27.2248 15.568C27.3368 15.76 27.5128 15.856 27.7528 15.856C28.0728 15.856 28.4408 15.728 28.8568 15.472C29.2728 15.216 29.6888 14.896 30.1048 14.512C30.5368 14.128 30.9288 13.736 31.2808 13.336C31.6488 12.92 31.9368 12.552 32.1448 12.232C32.2088 12.136 32.2808 12.088 32.3608 12.088C32.4408 12.088 32.4808 12.152 32.4808 12.28C32.4808 12.376 32.4488 12.464 32.3848 12.544C31.5528 13.68 30.7448 14.608 29.9608 15.328C29.1928 16.048 28.4088 16.408 27.6088 16.408ZM37.7663 16.144C37.3183 16.144 36.9983 15.968 36.8063 15.616C36.6143 15.264 36.5183 14.856 36.5183 14.392C36.5183 14.312 36.5183 14.224 36.5183 14.128C36.5183 14.032 36.5263 13.944 36.5423 13.864C36.2383 14.408 35.8463 14.92 35.3663 15.4C34.8863 15.88 34.2943 16.12 33.5903 16.12C33.1103 16.12 32.7023 15.944 32.3663 15.592C32.0463 15.24 31.8863 14.704 31.8863 13.984C31.8863 13.408 32.0463 12.688 32.3663 11.824C32.5423 11.408 32.7983 10.984 33.1343 10.552C33.4703 10.12 33.8783 9.76 34.3583 9.472C34.8383 9.168 35.3743 9.016 35.9663 9.016C36.6063 9.016 37.0543 9.136 37.3103 9.376C37.5663 9.616 37.7263 9.8 37.7903 9.928C37.7903 9.944 37.7903 9.96 37.7903 9.976C37.8063 9.976 37.8143 9.984 37.8143 10C37.8143 10.144 37.7263 10.216 37.5503 10.216C37.4703 10.216 37.3903 10.176 37.3103 10.096C37.1183 9.872 36.9263 9.712 36.7343 9.616C36.5423 9.52 36.3583 9.472 36.1823 9.472C35.8143 9.472 35.4703 9.632 35.1503 9.952C34.8303 10.256 34.5423 10.624 34.2863 11.056C34.0463 11.472 33.8463 11.864 33.6863 12.232C33.4623 12.744 33.2943 13.208 33.1823 13.624C33.0863 14.024 33.0383 14.36 33.0383 14.632C33.0383 15.352 33.2863 15.712 33.7823 15.712C34.1343 15.712 34.5503 15.488 35.0303 15.04C35.5103 14.592 35.9663 13.928 36.3983 13.048C36.7823 12.28 37.1263 11.6 37.4303 11.008C37.7343 10.4 37.9983 9.872 38.2223 9.424C38.2703 9.312 38.3903 9.232 38.5823 9.184C38.7743 9.12 38.9663 9.088 39.1583 9.088C39.3343 9.088 39.4943 9.12 39.6383 9.184C39.7823 9.232 39.8543 9.32 39.8543 9.448C39.8543 9.512 39.8143 9.6 39.7343 9.712C39.5423 9.984 39.2943 10.384 38.9903 10.912C38.7023 11.44 38.4303 11.992 38.1743 12.568C37.9343 13.144 37.7743 13.656 37.6943 14.104C37.6463 14.344 37.6223 14.56 37.6223 14.752C37.6223 15.264 37.7983 15.52 38.1503 15.52C38.2623 15.52 38.4383 15.48 38.6783 15.4C39.1263 15.208 39.5823 14.912 40.0463 14.512C40.5263 14.096 40.9743 13.64 41.3903 13.144C41.8223 12.648 42.1823 12.184 42.4703 11.752C42.6143 11.544 42.7263 11.44 42.8063 11.44C42.8543 11.44 42.8783 11.48 42.8783 11.56C42.8783 11.688 42.8143 11.848 42.6863 12.04C42.3983 12.472 42.0303 12.952 41.5823 13.48C41.1503 14.008 40.6783 14.496 40.1663 14.944C39.6703 15.392 39.1823 15.72 38.7023 15.928C38.3503 16.072 38.0383 16.144 37.7663 16.144ZM40.4792 23.752C39.9352 23.752 39.4792 23.632 39.1112 23.392C38.7432 23.152 38.5592 22.816 38.5592 22.384C38.5592 21.92 38.8152 21.384 39.3272 20.776C39.6632 20.392 40.0952 20.032 40.6232 19.696C41.1352 19.376 41.6872 19.064 42.2792 18.76C42.8712 18.472 43.4552 18.192 44.0312 17.92C44.6072 17.648 45.1192 17.376 45.5672 17.104C45.6472 16.8 45.7752 16.408 45.9512 15.928C46.1272 15.448 46.2632 15.032 46.3592 14.68C46.0712 15.048 45.7192 15.4 45.3032 15.736C44.8872 16.072 44.4232 16.24 43.9112 16.24C43.1272 16.24 42.5912 16.024 42.3032 15.592C42.0152 15.16 41.8712 14.648 41.8712 14.056C41.8712 13.688 41.9192 13.312 42.0152 12.928C42.1112 12.528 42.2152 12.176 42.3272 11.872C42.5032 11.456 42.7512 11.032 43.0712 10.6C43.4072 10.152 43.8072 9.776 44.2712 9.472C44.7512 9.168 45.2872 9.016 45.8792 9.016C46.5352 9.016 46.9912 9.136 47.2472 9.376C47.5192 9.6 47.6872 9.784 47.7512 9.928C47.7832 10.024 47.7992 10.088 47.7992 10.12C47.7992 10.28 47.7112 10.36 47.5352 10.36C47.4072 10.36 47.3032 10.312 47.2232 10.216C47.0152 9.976 46.8152 9.808 46.6232 9.712C46.4312 9.6 46.2472 9.544 46.0712 9.544C45.7512 9.544 45.4552 9.696 45.1832 10C44.9112 10.288 44.6712 10.64 44.4632 11.056C44.2552 11.456 44.0632 11.832 43.8872 12.184C43.7912 12.392 43.6712 12.728 43.5272 13.192C43.3992 13.656 43.3352 14.104 43.3352 14.536C43.3352 14.84 43.3912 15.104 43.5032 15.328C43.6312 15.552 43.8472 15.664 44.1512 15.664C44.5352 15.664 44.8952 15.52 45.2312 15.232C45.5672 14.944 45.8632 14.6 46.1192 14.2C46.3752 13.8 46.5752 13.44 46.7192 13.12C47.1192 12.24 47.4312 11.544 47.6552 11.032C47.8792 10.504 48.0952 10.072 48.3032 9.736C48.5112 9.384 48.7752 9.032 49.0952 8.68C49.2712 8.488 49.4392 8.352 49.5992 8.272C49.7752 8.192 49.9352 8.152 50.0792 8.152C50.3032 8.152 50.4792 8.224 50.6072 8.368C50.7512 8.496 50.8232 8.648 50.8232 8.824C50.8232 9.064 50.6872 9.256 50.4152 9.4C50.1272 9.544 49.8712 9.672 49.6472 9.784C49.4232 9.896 49.2312 10.032 49.0712 10.192C48.5592 10.704 48.1912 11.328 47.9672 12.064C47.7592 12.784 47.6072 13.536 47.5112 14.32C47.4312 15.104 47.3192 15.84 47.1752 16.528C47.7992 16.112 48.3592 15.696 48.8552 15.28C49.3672 14.864 49.8552 14.4 50.3192 13.888C50.7992 13.376 51.2952 12.76 51.8072 12.04C51.8872 11.912 51.9912 11.848 52.1192 11.848C52.1832 11.848 52.2152 11.888 52.2152 11.968C52.2152 12.064 52.1752 12.16 52.0952 12.256C51.5992 12.944 51.1192 13.568 50.6552 14.128C50.1912 14.688 49.6792 15.216 49.1192 15.712C48.5592 16.208 47.8792 16.72 47.0792 17.248C46.8072 18.48 46.3752 19.504 45.7832 20.32C45.2072 21.136 44.5912 21.784 43.9352 22.264C43.2952 22.76 42.7272 23.12 42.2312 23.344C41.6072 23.616 41.0232 23.752 40.4792 23.752ZM39.8792 23.224C40.3752 23.224 40.9112 23.048 41.4872 22.696C42.2872 22.216 43.0072 21.576 43.6472 20.776C44.3032 19.976 44.8712 18.968 45.3512 17.752C44.9512 17.96 44.4712 18.184 43.9112 18.424C43.3512 18.664 42.8552 18.92 42.4232 19.192C41.9272 19.48 41.4632 19.784 41.0312 20.104C40.5992 20.424 40.2392 20.768 39.9512 21.136C39.4232 21.808 39.1592 22.32 39.1592 22.672C39.1592 23.04 39.3992 23.224 39.8792 23.224ZM53.7857 16.312C53.0017 16.312 52.4337 16.032 52.0817 15.472C51.7297 14.896 51.5537 14.232 51.5537 13.48C51.5537 12.776 51.6817 12.072 51.9377 11.368C52.2097 10.648 52.5777 10.048 53.0417 9.568C53.5217 9.088 54.0817 8.848 54.7217 8.848C54.7537 8.848 54.8257 8.856 54.9377 8.872C55.0497 8.872 55.1217 8.88 55.1537 8.896C55.6337 8.416 56.1297 8.176 56.6417 8.176C57.1057 8.176 57.4977 8.384 57.8177 8.8C58.1537 9.2 58.3217 9.768 58.3217 10.504C58.3217 11.016 58.2417 11.56 58.0817 12.136C57.9217 12.712 57.7137 13.256 57.4577 13.768C57.2177 14.264 56.9537 14.672 56.6657 14.992C56.7297 15.008 56.7857 15.016 56.8337 15.016C56.8817 15.016 56.9377 15.016 57.0017 15.016C57.5617 15.016 58.1137 14.872 58.6577 14.584C59.2017 14.296 59.7137 13.92 60.1937 13.456C60.6897 12.976 61.1217 12.456 61.4897 11.896C61.5697 11.8 61.6257 11.752 61.6577 11.752C61.7377 11.752 61.7777 11.808 61.7777 11.92C61.7777 12.032 61.7457 12.128 61.6817 12.208C61.5217 12.496 61.2737 12.832 60.9377 13.216C60.6017 13.584 60.2097 13.952 59.7617 14.32C59.3297 14.688 58.8657 14.992 58.3697 15.232C57.8737 15.472 57.3777 15.592 56.8817 15.592C56.7697 15.592 56.6497 15.584 56.5217 15.568C56.4097 15.536 56.2977 15.512 56.1857 15.496C55.9297 15.736 55.5617 15.928 55.0817 16.072C54.6017 16.232 54.1697 16.312 53.7857 16.312ZM55.9937 14.776C56.4577 14.264 56.8177 13.608 57.0737 12.808C57.3297 12.008 57.4577 11.24 57.4577 10.504C57.4577 10.408 57.4577 10.312 57.4577 10.216C57.4577 10.12 57.4497 10.032 57.4337 9.952C57.3857 9.536 57.2897 9.24 57.1457 9.064C57.0017 8.872 56.8337 8.776 56.6417 8.776C56.3537 8.776 56.0497 8.952 55.7297 9.304C55.4257 9.64 55.2097 10.048 55.0817 10.528C54.9537 10.992 54.8897 11.48 54.8897 11.992C54.8897 12.584 54.9777 13.144 55.1537 13.672C55.3297 14.184 55.6097 14.552 55.9937 14.776ZM54.2657 15.688C54.7297 15.688 55.1617 15.528 55.5617 15.208C55.1137 14.888 54.7857 14.448 54.5777 13.888C54.3697 13.328 54.2657 12.736 54.2657 12.112C54.2657 11.664 54.3137 11.224 54.4097 10.792C54.5217 10.344 54.6737 9.944 54.8657 9.592C54.5617 9.656 54.2657 9.92 53.9777 10.384C53.6897 10.848 53.4497 11.392 53.2577 12.016C53.0817 12.64 52.9937 13.24 52.9937 13.816C52.9937 14.344 53.0897 14.792 53.2817 15.16C53.4737 15.512 53.8017 15.688 54.2657 15.688Z" fill="white"/>
</svg>
