<svg width="68" height="34" viewBox="0 0 68 34" fill="none" xmlns="http://www.w3.org/2000/svg">
<path d="M20.184 3.08C20.68 3.176 21.048 3.344 21.288 3.584C21.544 3.824 21.672 4.104 21.672 4.424C21.672 4.952 21.52 5.336 21.216 5.576C20.928 5.816 20.464 5.912 19.824 5.864C18.384 5.752 17.256 5.68 16.44 5.648C15.64 5.6 14.584 5.568 13.272 5.552C12.68 8.496 12.136 11.456 11.64 14.432C11.464 15.52 11.28 16.784 11.088 18.224C10.896 19.648 10.768 20.8 10.704 21.68C10.672 22.144 10.48 22.504 10.128 22.76C9.776 23 9.352 23.12 8.856 23.12C8.328 23.12 7.92 22.992 7.632 22.736C7.344 22.48 7.2 22.144 7.2 21.728C7.2 21.344 7.256 20.712 7.368 19.832C7.496 18.936 7.64 18 7.8 17.024C7.976 16.048 8.112 15.2 8.208 14.48C8.384 13.264 8.584 12.056 8.808 10.856C9.032 9.656 9.256 8.52 9.48 7.448C9.528 7.208 9.584 6.936 9.648 6.632C9.712 6.312 9.784 5.96 9.864 5.576C8.296 5.624 7.064 5.752 6.168 5.96C5.272 6.168 4.632 6.464 4.248 6.848C3.88 7.216 3.696 7.696 3.696 8.288C3.696 8.832 3.856 9.352 4.176 9.848C4.24 9.96 4.272 10.08 4.272 10.208C4.272 10.512 4.088 10.8 3.72 11.072C3.368 11.328 3 11.456 2.616 11.456C2.344 11.456 2.12 11.376 1.944 11.216C1.624 10.944 1.36 10.56 1.152 10.064C0.944 9.552 0.84 8.976 0.84 8.336C0.84 6.976 1.28 5.888 2.16 5.072C3.056 4.24 4.408 3.632 6.216 3.248C8.04 2.864 10.376 2.672 13.224 2.672C14.984 2.672 16.384 2.704 17.424 2.768C18.48 2.832 19.4 2.936 20.184 3.08ZM31.2064 17.648C31.4144 17.648 31.5744 17.744 31.6864 17.936C31.8144 18.128 31.8784 18.392 31.8784 18.728C31.8784 19.368 31.7264 19.864 31.4224 20.216C30.6864 21.064 29.9264 21.76 29.1424 22.304C28.3744 22.848 27.4944 23.12 26.5024 23.12C25.6864 23.12 25.0704 22.888 24.6544 22.424C24.2384 21.944 24.0304 21.256 24.0304 20.36C24.0304 19.912 24.1424 19.112 24.3664 17.96C24.5744 16.952 24.6784 16.256 24.6784 15.872C24.6784 15.616 24.5904 15.488 24.4144 15.488C24.2064 15.488 23.9104 15.76 23.5264 16.304C23.1424 16.832 22.7584 17.536 22.3744 18.416C21.9904 19.296 21.6784 20.224 21.4384 21.2C21.1344 22.48 20.3824 23.12 19.1824 23.12C18.7024 23.12 18.3824 22.952 18.2224 22.616C18.0784 22.264 18.0064 21.64 18.0064 20.744C18.0064 20.232 18.0144 19.824 18.0304 19.52L18.0544 17.6C18.0544 15.136 18.3024 12.568 18.7984 9.896C19.3104 7.224 20.0544 4.984 21.0304 3.176C22.0224 1.352 23.2064 0.439999 24.5824 0.439999C25.3184 0.439999 25.9104 0.759999 26.3584 1.4C26.8224 2.024 27.0544 2.84 27.0544 3.848C27.0544 5.464 26.5824 7.144 25.6384 8.888C24.6944 10.616 23.1584 12.64 21.0304 14.96C20.9824 15.792 20.9584 16.648 20.9584 17.528C21.4864 16.168 22.0704 15.064 22.7104 14.216C23.3664 13.352 24.0064 12.736 24.6304 12.368C25.2704 12 25.8544 11.816 26.3824 11.816C27.4224 11.816 27.9424 12.336 27.9424 13.376C27.9424 14 27.7664 15.128 27.4144 16.76C27.1104 18.152 26.9584 19.072 26.9584 19.52C26.9584 20.16 27.1904 20.48 27.6544 20.48C27.9744 20.48 28.3504 20.288 28.7824 19.904C29.2304 19.504 29.8224 18.864 30.5584 17.984C30.7504 17.76 30.9664 17.648 31.2064 17.648ZM24.0784 2.816C23.7904 2.816 23.4704 3.232 23.1184 4.064C22.7664 4.88 22.4224 5.992 22.0864 7.4C21.7664 8.792 21.5024 10.312 21.2944 11.96C22.2864 10.792 23.1024 9.52 23.7424 8.144C24.3984 6.768 24.7264 5.52 24.7264 4.4C24.7264 3.888 24.6704 3.496 24.5584 3.224C24.4464 2.952 24.2864 2.816 24.0784 2.816ZM33.0773 10.232C32.4053 10.232 31.9013 10.08 31.5653 9.776C31.2293 9.456 31.0613 9.016 31.0613 8.456C31.0613 7.896 31.2773 7.432 31.7093 7.064C32.1573 6.68 32.7093 6.488 33.3653 6.488C33.9573 6.488 34.4373 6.632 34.8053 6.92C35.1733 7.208 35.3573 7.616 35.3573 8.144C35.3573 8.784 35.1493 9.296 34.7333 9.68C34.3173 10.048 33.7653 10.232 33.0773 10.232ZM32.8853 23.12C31.8453 23.12 31.0853 22.752 30.6053 22.016C30.1413 21.28 29.9093 20.304 29.9093 19.088C29.9093 18.368 29.9973 17.448 30.1733 16.328C30.3653 15.192 30.6053 14.136 30.8933 13.16C31.0373 12.648 31.2293 12.296 31.4693 12.104C31.7093 11.912 32.0933 11.816 32.6213 11.816C33.4373 11.816 33.8453 12.088 33.8453 12.632C33.8453 13.032 33.6933 13.96 33.3893 15.416C33.0053 17.176 32.8133 18.368 32.8133 18.992C32.8133 19.472 32.8773 19.84 33.0053 20.096C33.1333 20.352 33.3493 20.48 33.6533 20.48C33.9413 20.48 34.3013 20.28 34.7333 19.88C35.1653 19.48 35.7413 18.848 36.4613 17.984C36.6533 17.76 36.8693 17.648 37.1093 17.648C37.3173 17.648 37.4773 17.744 37.5893 17.936C37.7173 18.128 37.7813 18.392 37.7813 18.728C37.7813 19.368 37.6293 19.864 37.3253 20.216C35.7413 22.152 34.2613 23.12 32.8853 23.12ZM38.7915 23.12C37.7995 23.12 37.0075 22.76 36.4155 22.04C35.8235 21.32 35.5275 20.376 35.5275 19.208C35.5275 17.928 35.8235 16.72 36.4155 15.584C37.0075 14.432 37.7915 13.512 38.7675 12.824C39.7595 12.12 40.8075 11.768 41.9115 11.768C42.2635 11.768 42.4955 11.84 42.6075 11.984C42.7355 12.112 42.8395 12.352 42.9195 12.704C43.2555 12.64 43.6075 12.608 43.9755 12.608C44.7595 12.608 45.1515 12.888 45.1515 13.448C45.1515 13.784 45.0315 14.584 44.7915 15.848C44.4235 17.688 44.2395 18.968 44.2395 19.688C44.2395 19.928 44.2955 20.12 44.4075 20.264C44.5355 20.408 44.6955 20.48 44.8875 20.48C45.1915 20.48 45.5595 20.288 45.9915 19.904C46.4235 19.504 47.0075 18.864 47.7435 17.984C47.9355 17.76 48.1515 17.648 48.3915 17.648C48.5995 17.648 48.7595 17.744 48.8715 17.936C48.9995 18.128 49.0635 18.392 49.0635 18.728C49.0635 19.368 48.9115 19.864 48.6075 20.216C47.9515 21.032 47.2555 21.72 46.5195 22.28C45.7835 22.84 45.0715 23.12 44.3835 23.12C43.8555 23.12 43.3675 22.944 42.9195 22.592C42.4875 22.224 42.1595 21.728 41.9355 21.104C41.1035 22.448 40.0555 23.12 38.7915 23.12ZM39.6555 20.696C40.0075 20.696 40.3435 20.488 40.6635 20.072C40.9835 19.656 41.2155 19.104 41.3595 18.416L42.2475 14C41.5755 14.016 40.9515 14.272 40.3755 14.768C39.8155 15.248 39.3675 15.888 39.0315 16.688C38.6955 17.488 38.5275 18.336 38.5275 19.232C38.5275 19.728 38.6235 20.096 38.8155 20.336C39.0235 20.576 39.3035 20.696 39.6555 20.696ZM59.4009 17.696C59.6089 17.696 59.7689 17.8 59.8809 18.008C60.0089 18.2 60.0729 18.448 60.0729 18.752C60.0729 19.12 60.0169 19.408 59.9049 19.616C59.7929 19.824 59.6169 20.008 59.3769 20.168C58.0009 21.096 56.9929 21.784 56.3529 22.232L54.8169 23.264C54.2089 26.576 53.4089 29.176 52.4169 31.064C51.4409 32.968 50.1929 33.92 48.6729 33.92C47.8569 33.92 47.1929 33.664 46.6809 33.152C46.1689 32.656 45.9129 32 45.9129 31.184C45.9129 30.048 46.3609 28.824 47.2569 27.512C48.1529 26.216 49.8329 24.616 52.2969 22.712L52.4409 21.776C52.1689 22.208 51.8089 22.544 51.3609 22.784C50.9289 23.008 50.4969 23.12 50.0649 23.12C49.0729 23.12 48.2809 22.76 47.6889 22.04C47.0969 21.32 46.8009 20.376 46.8009 19.208C46.8009 17.928 47.0969 16.72 47.6889 15.584C48.2809 14.432 49.0649 13.512 50.0409 12.824C51.0329 12.12 52.0809 11.768 53.1849 11.768C53.5369 11.768 53.7689 11.84 53.8809 11.984C54.0089 12.112 54.1129 12.352 54.1929 12.704C54.4969 12.64 54.8489 12.608 55.2489 12.608C55.6489 12.608 55.9289 12.672 56.0889 12.8C56.2649 12.912 56.3529 13.144 56.3529 13.496C56.3529 13.688 56.3449 13.84 56.3289 13.952C56.2649 14.448 56.0649 15.704 55.7289 17.72C55.6649 18.104 55.5929 18.528 55.5129 18.992C55.4489 19.44 55.3769 19.92 55.2969 20.432C56.5289 19.472 57.7129 18.624 58.8489 17.888C59.0569 17.76 59.2409 17.696 59.4009 17.696ZM50.9289 20.696C51.2969 20.696 51.6489 20.472 51.9849 20.024C52.3209 19.576 52.5609 18.936 52.7049 18.104L53.4729 14C52.8169 14.016 52.2089 14.272 51.6489 14.768C51.0889 15.248 50.6409 15.888 50.3049 16.688C49.9689 17.488 49.8009 18.336 49.8009 19.232C49.8009 19.728 49.8969 20.096 50.0889 20.336C50.2969 20.576 50.5769 20.696 50.9289 20.696ZM48.9369 31.592C49.3369 31.592 49.7849 31.112 50.2809 30.152C50.7929 29.192 51.2809 27.664 51.7449 25.568C50.5129 26.624 49.6249 27.576 49.0809 28.424C48.5369 29.272 48.2649 30.016 48.2649 30.656C48.2649 30.928 48.3129 31.152 48.4089 31.328C48.5209 31.504 48.6969 31.592 48.9369 31.592ZM62.6533 23.12C61.7093 23.12 60.9013 22.888 60.2293 22.424C59.5733 21.944 59.0773 21.32 58.7413 20.552C58.4053 19.784 58.2373 18.96 58.2373 18.08C58.2373 16.864 58.4613 15.784 58.9093 14.84C59.3733 13.88 59.9973 13.136 60.7813 12.608C61.5653 12.064 62.4453 11.792 63.4213 11.792C64.3653 11.792 65.1733 12.032 65.8453 12.512C66.5173 12.976 67.0213 13.592 67.3573 14.36C67.6933 15.128 67.8613 15.952 67.8613 16.832C67.8613 18.048 67.6293 19.136 67.1653 20.096C66.7013 21.04 66.0693 21.784 65.2693 22.328C64.4853 22.856 63.6133 23.12 62.6533 23.12ZM62.9173 20.528C63.4613 20.528 63.9173 20.232 64.2853 19.64C64.6693 19.048 64.8613 18.184 64.8613 17.048C64.8613 16.168 64.7013 15.504 64.3813 15.056C64.0613 14.608 63.6773 14.384 63.2293 14.384C62.6533 14.384 62.1733 14.68 61.7893 15.272C61.4213 15.848 61.2373 16.712 61.2373 17.864C61.2373 18.776 61.3973 19.448 61.7173 19.88C62.0373 20.312 62.4373 20.528 62.9173 20.528Z" fill="white"/>
</svg>
